<?xml version="1.0" encoding="utf-8"?>
<!-- Generator: Adobe Illustrator 14.0.0, SVG Export Plug-In  -->
<!DOCTYPE svg PUBLIC "-//W3C//DTD SVG 1.1//EN" "http://www.w3.org/Graphics/SVG/1.1/DTD/svg11.dtd" [
	<!ENTITY ns_flows "http://ns.adobe.com/Flows/1.0/">
]>
<svg version="1.1"
	 xmlns="http://www.w3.org/2000/svg" xmlns:xlink="http://www.w3.org/1999/xlink" xmlns:a="http://ns.adobe.com/AdobeSVGViewerExtensions/3.0/"
	 x="0px" y="0px" width="256px" height="29px" viewBox="-0.31 0 256 29" enable-background="new -0.31 0 256 29"
	 xml:space="preserve">
<defs>
</defs>
<rect display="none" fill="#ED7A2A" width="255.381" height="28.856"/>
<path fill="#D46127" d="M25.02,5.564c-0.913-1.104-2.232-1.974-3.96-2.61C19.332,2.318,17.364,2,15.156,2
	c-2.232,0-4.278,0.408-6.138,1.224S5.562,5.156,4.23,6.572C2.898,7.988,1.859,9.645,1.116,11.54C0.372,13.436,0,15.477,0,17.66
	c0,1.8,0.306,3.402,0.918,4.806c0.612,1.404,1.476,2.586,2.592,3.546s2.454,1.686,4.014,2.178c1.56,0.492,3.299,0.738,5.22,0.738
	c1.872,0,3.642-0.247,5.31-0.738c1.668-0.492,3.162-1.085,4.482-1.782l2.448-13.896H13.428l-1.152,6.552h4.176l-0.396,2.232
	c-0.264,0.121-0.606,0.216-1.026,0.288c-0.42,0.072-0.834,0.108-1.242,0.108c-1.776,0-3.072-0.462-3.888-1.386
	c-0.816-0.924-1.224-2.094-1.224-3.51c0-1.152,0.18-2.184,0.54-3.096s0.833-1.686,1.422-2.322c0.588-0.636,1.272-1.128,2.052-1.476
	c0.779-0.348,1.589-0.522,2.43-0.522c1.08,0,1.962,0.192,2.646,0.576c0.684,0.384,1.23,0.888,1.638,1.512L25.02,5.564z"/>
<path fill="#D46127" d="M46.493,27.668c1.908-0.792,3.54-1.872,4.896-3.24c1.356-1.368,2.4-2.976,3.132-4.824
	c0.731-1.848,1.098-3.828,1.098-5.94c0-1.704-0.276-3.264-0.828-4.68c-0.553-1.416-1.363-2.64-2.43-3.672
	c-1.068-1.032-2.389-1.83-3.96-2.394c-1.572-0.563-3.39-0.846-5.454-0.846c-2.328,0-4.446,0.396-6.354,1.188
	c-1.908,0.792-3.534,1.872-4.878,3.24c-1.344,1.368-2.389,2.976-3.132,4.824c-0.745,1.848-1.116,3.828-1.116,5.94
	c0,1.704,0.275,3.264,0.828,4.68c0.552,1.417,1.362,2.641,2.43,3.672c1.068,1.032,2.388,1.83,3.96,2.394
	c1.572,0.564,3.378,0.846,5.418,0.846C42.455,28.856,44.585,28.46,46.493,27.668z M46.511,16.868
	c-0.288,0.84-0.696,1.584-1.224,2.232s-1.164,1.165-1.908,1.548c-0.744,0.384-1.584,0.576-2.52,0.576
	c-0.769,0-1.446-0.12-2.034-0.36c-0.588-0.239-1.08-0.569-1.476-0.99c-0.396-0.419-0.696-0.912-0.9-1.476
	c-0.204-0.563-0.306-1.17-0.306-1.818c0-0.864,0.144-1.716,0.432-2.556c0.288-0.84,0.696-1.584,1.224-2.232
	c0.527-0.648,1.17-1.17,1.926-1.566s1.602-0.594,2.538-0.594c0.744,0,1.41,0.121,1.998,0.36c0.588,0.24,1.08,0.57,1.476,0.99
	c0.396,0.42,0.696,0.913,0.9,1.476c0.204,0.564,0.306,1.17,0.306,1.818C46.943,15.164,46.799,16.028,46.511,16.868z"/>
<path fill="#D46127" d="M91.475,5.564c-0.913-1.104-2.232-1.974-3.96-2.61C85.787,2.318,83.819,2,81.611,2
	c-2.232,0-4.278,0.408-6.138,1.224c-1.86,0.816-3.456,1.932-4.788,3.348c-1.332,1.417-2.371,3.073-3.114,4.968
	c-0.744,1.896-1.116,3.937-1.116,6.12c0,1.8,0.306,3.402,0.918,4.806c0.612,1.404,1.476,2.586,2.592,3.546
	c1.116,0.96,2.454,1.686,4.014,2.178c1.56,0.492,3.3,0.738,5.22,0.738c1.872,0,3.642-0.247,5.31-0.738s3.162-1.085,4.482-1.782
	l2.448-13.896H79.883l-1.152,6.552h4.176l-0.396,2.232c-0.264,0.121-0.606,0.216-1.026,0.288c-0.42,0.072-0.834,0.108-1.242,0.108
	c-1.776,0-3.073-0.462-3.888-1.386c-0.816-0.924-1.224-2.094-1.224-3.51c0-1.152,0.18-2.184,0.54-3.096s0.833-1.686,1.422-2.322
	c0.588-0.636,1.272-1.128,2.052-1.476c0.78-0.348,1.589-0.522,2.43-0.522c1.08,0,1.962,0.192,2.646,0.576
	c0.684,0.384,1.229,0.888,1.638,1.512L91.475,5.564z"/>
<path fill="#D46127" d="M112.948,27.668c1.908-0.792,3.54-1.872,4.896-3.24c1.355-1.368,2.399-2.976,3.132-4.824
	c0.732-1.848,1.098-3.828,1.098-5.94c0-1.704-0.276-3.264-0.828-4.68c-0.553-1.416-1.362-2.64-2.43-3.672
	c-1.068-1.032-2.388-1.83-3.96-2.394c-1.572-0.563-3.39-0.846-5.454-0.846c-2.328,0-4.446,0.396-6.354,1.188
	c-1.908,0.792-3.534,1.872-4.878,3.24c-1.344,1.368-2.388,2.976-3.132,4.824c-0.744,1.848-1.116,3.828-1.116,5.94
	c0,1.704,0.276,3.264,0.828,4.68c0.552,1.417,1.362,2.641,2.43,3.672c1.067,1.032,2.388,1.83,3.96,2.394
	c1.571,0.564,3.377,0.846,5.418,0.846C108.91,28.856,111.041,28.46,112.948,27.668z M112.966,16.868
	c-0.288,0.84-0.696,1.584-1.224,2.232c-0.528,0.648-1.165,1.165-1.908,1.548c-0.744,0.384-1.584,0.576-2.52,0.576
	c-0.769,0-1.446-0.12-2.034-0.36c-0.588-0.239-1.08-0.569-1.476-0.99c-0.396-0.419-0.696-0.912-0.9-1.476
	c-0.204-0.563-0.306-1.17-0.306-1.818c0-0.864,0.144-1.716,0.432-2.556c0.288-0.84,0.696-1.584,1.224-2.232
	c0.528-0.648,1.17-1.17,1.926-1.566c0.756-0.396,1.602-0.594,2.538-0.594c0.744,0,1.41,0.121,1.998,0.36
	c0.588,0.24,1.08,0.57,1.476,0.99c0.396,0.42,0.696,0.913,0.9,1.476c0.204,0.564,0.306,1.17,0.306,1.818
	C113.398,15.164,113.254,16.028,112.966,16.868z"/>
<path fill="#D46127" d="M157.93,5.564c-0.913-1.104-2.232-1.974-3.96-2.61C152.242,2.318,150.274,2,148.066,2
	c-2.232,0-4.279,0.408-6.138,1.224c-1.86,0.816-3.456,1.932-4.788,3.348c-1.332,1.417-2.37,3.073-3.114,4.968
	c-0.744,1.896-1.116,3.937-1.116,6.12c0,1.8,0.306,3.402,0.918,4.806c0.612,1.404,1.476,2.586,2.592,3.546
	c1.116,0.96,2.454,1.686,4.014,2.178s3.3,0.738,5.22,0.738c1.872,0,3.642-0.247,5.31-0.738c1.667-0.492,3.162-1.085,4.482-1.782
	l2.448-13.896h-11.556l-1.152,6.552h4.176l-0.396,2.232c-0.265,0.121-0.606,0.216-1.026,0.288c-0.42,0.072-0.834,0.108-1.242,0.108
	c-1.776,0-3.072-0.462-3.888-1.386s-1.224-2.094-1.224-3.51c0-1.152,0.18-2.184,0.54-3.096c0.36-0.912,0.834-1.686,1.422-2.322
	c0.587-0.636,1.271-1.128,2.052-1.476c0.78-0.348,1.59-0.522,2.43-0.522c1.08,0,1.962,0.192,2.646,0.576
	c0.684,0.384,1.229,0.888,1.638,1.512L157.93,5.564z"/>
<path fill="#D46127" d="M179.404,27.668c1.908-0.792,3.54-1.872,4.896-3.24c1.355-1.368,2.399-2.976,3.132-4.824
	c0.732-1.848,1.098-3.828,1.098-5.94c0-1.704-0.276-3.264-0.828-4.68c-0.552-1.416-1.362-2.64-2.43-3.672
	c-1.068-1.032-2.388-1.83-3.96-2.394c-1.572-0.563-3.39-0.846-5.454-0.846c-2.328,0-4.446,0.396-6.354,1.188
	c-1.908,0.792-3.534,1.872-4.878,3.24s-2.388,2.976-3.132,4.824c-0.744,1.848-1.116,3.828-1.116,5.94
	c0,1.704,0.275,3.264,0.828,4.68c0.552,1.417,1.362,2.641,2.43,3.672c1.067,1.032,2.388,1.83,3.96,2.394
	c1.572,0.564,3.378,0.846,5.418,0.846C175.365,28.856,177.496,28.46,179.404,27.668z M179.422,16.868
	c-0.288,0.84-0.697,1.584-1.224,2.232c-0.528,0.648-1.165,1.165-1.908,1.548c-0.744,0.384-1.584,0.576-2.52,0.576
	c-0.768,0-1.446-0.12-2.034-0.36c-0.588-0.239-1.08-0.569-1.476-0.99c-0.396-0.419-0.696-0.912-0.9-1.476
	c-0.205-0.563-0.306-1.17-0.306-1.818c0-0.864,0.144-1.716,0.432-2.556c0.288-0.84,0.696-1.584,1.224-2.232s1.17-1.17,1.926-1.566
	c0.756-0.396,1.602-0.594,2.538-0.594c0.744,0,1.41,0.121,1.998,0.36c0.587,0.24,1.08,0.57,1.476,0.99
	c0.396,0.42,0.696,0.913,0.9,1.476c0.204,0.564,0.306,1.17,0.306,1.818C179.854,15.164,179.709,16.028,179.422,16.868z"/>
<path fill="#D46127" d="M209.193,9.704l1.224-6.984h-16.416l-4.5,25.488h8.172l1.548-8.784h7.812l1.188-6.768h-7.848l0.54-2.952
	H209.193z"/>
<path fill="#D46127" d="M227.697,28.208l1.224-6.948h-9.864l0.468-2.664h8.424l1.152-6.48h-8.424l0.432-2.448h8.82l1.224-6.948
	h-16.668l-4.5,25.488H227.697z"/>
<path fill="#D46127" d="M254.769,28.208l-4.968-10.404c1.728-0.504,3.09-1.44,4.086-2.808c0.996-1.368,1.494-3.108,1.494-5.22
	c0-1.127-0.21-2.129-0.63-3.006c-0.42-0.876-1.026-1.614-1.818-2.214c-0.792-0.6-1.752-1.056-2.88-1.368
	c-1.128-0.312-2.389-0.468-3.78-0.468h-10.476l-4.5,25.488h8.028l1.584-9.324h1.008l3.492,9.324H254.769z M241.917,13.592
	l0.756-4.284h1.548c0.888,0,1.589,0.138,2.106,0.414c0.516,0.276,0.774,0.786,0.774,1.53c0,0.816-0.312,1.41-0.936,1.782
	c-0.625,0.372-1.488,0.558-2.592,0.558H241.917z"/>
<path fill="#FFFFFF" d="M25.02,3.564c-0.913-1.104-2.232-1.974-3.96-2.61C19.332,0.318,17.364,0,15.156,0
	c-2.232,0-4.278,0.408-6.138,1.224S5.562,3.156,4.23,4.572C2.898,5.988,1.859,7.645,1.116,9.54C0.372,11.436,0,13.477,0,15.66
	c0,1.8,0.306,3.402,0.918,4.806c0.612,1.404,1.476,2.586,2.592,3.546s2.454,1.686,4.014,2.178c1.56,0.492,3.299,0.738,5.22,0.738
	c1.872,0,3.642-0.247,5.31-0.738c1.668-0.492,3.162-1.085,4.482-1.782l2.448-13.896H13.428l-1.152,6.552h4.176l-0.396,2.232
	c-0.264,0.121-0.606,0.216-1.026,0.288c-0.42,0.072-0.834,0.108-1.242,0.108c-1.776,0-3.072-0.462-3.888-1.386
	c-0.816-0.924-1.224-2.094-1.224-3.51c0-1.152,0.18-2.184,0.54-3.096s0.833-1.686,1.422-2.322c0.588-0.636,1.272-1.128,2.052-1.476
	c0.779-0.348,1.589-0.522,2.43-0.522c1.08,0,1.962,0.192,2.646,0.576c0.684,0.384,1.23,0.888,1.638,1.512L25.02,3.564z"/>
<path fill="#FFFFFF" d="M46.493,25.668c1.908-0.792,3.54-1.872,4.896-3.24c1.356-1.368,2.4-2.976,3.132-4.824
	c0.731-1.848,1.098-3.828,1.098-5.94c0-1.704-0.276-3.264-0.828-4.68c-0.553-1.416-1.363-2.64-2.43-3.672
	c-1.068-1.032-2.389-1.83-3.96-2.394c-1.572-0.563-3.39-0.846-5.454-0.846c-2.328,0-4.446,0.396-6.354,1.188
	c-1.908,0.792-3.534,1.872-4.878,3.24c-1.344,1.368-2.389,2.976-3.132,4.824c-0.745,1.848-1.116,3.828-1.116,5.94
	c0,1.704,0.275,3.264,0.828,4.68c0.552,1.417,1.362,2.641,2.43,3.672c1.068,1.032,2.388,1.83,3.96,2.394
	c1.572,0.564,3.378,0.846,5.418,0.846C42.455,26.856,44.585,26.46,46.493,25.668z M46.511,14.868
	c-0.288,0.84-0.696,1.584-1.224,2.232s-1.164,1.165-1.908,1.548c-0.744,0.384-1.584,0.576-2.52,0.576
	c-0.769,0-1.446-0.12-2.034-0.36c-0.588-0.239-1.08-0.569-1.476-0.99c-0.396-0.419-0.696-0.912-0.9-1.476
	c-0.204-0.563-0.306-1.17-0.306-1.818c0-0.864,0.144-1.716,0.432-2.556c0.288-0.84,0.696-1.584,1.224-2.232
	c0.527-0.648,1.17-1.17,1.926-1.566s1.602-0.594,2.538-0.594c0.744,0,1.41,0.121,1.998,0.36c0.588,0.24,1.08,0.57,1.476,0.99
	c0.396,0.42,0.696,0.913,0.9,1.476c0.204,0.564,0.306,1.17,0.306,1.818C46.943,13.164,46.799,14.028,46.511,14.868z"/>
<path fill="#FFFFFF" d="M91.475,3.564c-0.913-1.104-2.232-1.974-3.96-2.61C85.787,0.318,83.819,0,81.611,0
	c-2.232,0-4.278,0.408-6.138,1.224c-1.86,0.816-3.456,1.932-4.788,3.348c-1.332,1.417-2.371,3.073-3.114,4.968
	c-0.744,1.896-1.116,3.937-1.116,6.12c0,1.8,0.306,3.402,0.918,4.806c0.612,1.404,1.476,2.586,2.592,3.546
	c1.116,0.96,2.454,1.686,4.014,2.178c1.56,0.492,3.3,0.738,5.22,0.738c1.872,0,3.642-0.247,5.31-0.738s3.162-1.085,4.482-1.782
	l2.448-13.896H79.883l-1.152,6.552h4.176l-0.396,2.232c-0.264,0.121-0.606,0.216-1.026,0.288c-0.42,0.072-0.834,0.108-1.242,0.108
	c-1.776,0-3.073-0.462-3.888-1.386c-0.816-0.924-1.224-2.094-1.224-3.51c0-1.152,0.18-2.184,0.54-3.096s0.833-1.686,1.422-2.322
	c0.588-0.636,1.272-1.128,2.052-1.476c0.78-0.348,1.589-0.522,2.43-0.522c1.08,0,1.962,0.192,2.646,0.576
	c0.684,0.384,1.229,0.888,1.638,1.512L91.475,3.564z"/>
<path fill="#FFFFFF" d="M112.948,25.668c1.908-0.792,3.54-1.872,4.896-3.24c1.355-1.368,2.399-2.976,3.132-4.824
	c0.732-1.848,1.098-3.828,1.098-5.94c0-1.704-0.276-3.264-0.828-4.68c-0.553-1.416-1.362-2.64-2.43-3.672
	c-1.068-1.032-2.388-1.83-3.96-2.394c-1.572-0.563-3.39-0.846-5.454-0.846c-2.328,0-4.446,0.396-6.354,1.188
	c-1.908,0.792-3.534,1.872-4.878,3.24c-1.344,1.368-2.388,2.976-3.132,4.824c-0.744,1.848-1.116,3.828-1.116,5.94
	c0,1.704,0.276,3.264,0.828,4.68c0.552,1.417,1.362,2.641,2.43,3.672c1.067,1.032,2.388,1.83,3.96,2.394
	c1.571,0.564,3.377,0.846,5.418,0.846C108.91,26.856,111.041,26.46,112.948,25.668z M112.966,14.868
	c-0.288,0.84-0.696,1.584-1.224,2.232c-0.528,0.648-1.165,1.165-1.908,1.548c-0.744,0.384-1.584,0.576-2.52,0.576
	c-0.769,0-1.446-0.12-2.034-0.36c-0.588-0.239-1.08-0.569-1.476-0.99c-0.396-0.419-0.696-0.912-0.9-1.476
	c-0.204-0.563-0.306-1.17-0.306-1.818c0-0.864,0.144-1.716,0.432-2.556c0.288-0.84,0.696-1.584,1.224-2.232
	c0.528-0.648,1.17-1.17,1.926-1.566c0.756-0.396,1.602-0.594,2.538-0.594c0.744,0,1.41,0.121,1.998,0.36
	c0.588,0.24,1.08,0.57,1.476,0.99c0.396,0.42,0.696,0.913,0.9,1.476c0.204,0.564,0.306,1.17,0.306,1.818
	C113.398,13.164,113.254,14.028,112.966,14.868z"/>
<path fill="#FFFFFF" d="M157.93,3.564c-0.913-1.104-2.232-1.974-3.96-2.61C152.242,0.318,150.274,0,148.066,0
	c-2.232,0-4.279,0.408-6.138,1.224c-1.86,0.816-3.456,1.932-4.788,3.348c-1.332,1.417-2.37,3.073-3.114,4.968
	c-0.744,1.896-1.116,3.937-1.116,6.12c0,1.8,0.306,3.402,0.918,4.806c0.612,1.404,1.476,2.586,2.592,3.546
	c1.116,0.96,2.454,1.686,4.014,2.178s3.3,0.738,5.22,0.738c1.872,0,3.642-0.247,5.31-0.738c1.667-0.492,3.162-1.085,4.482-1.782
	l2.448-13.896h-11.556l-1.152,6.552h4.176l-0.396,2.232c-0.265,0.121-0.606,0.216-1.026,0.288c-0.42,0.072-0.834,0.108-1.242,0.108
	c-1.776,0-3.072-0.462-3.888-1.386s-1.224-2.094-1.224-3.51c0-1.152,0.18-2.184,0.54-3.096c0.36-0.912,0.834-1.686,1.422-2.322
	c0.587-0.636,1.271-1.128,2.052-1.476c0.78-0.348,1.59-0.522,2.43-0.522c1.08,0,1.962,0.192,2.646,0.576
	c0.684,0.384,1.229,0.888,1.638,1.512L157.93,3.564z"/>
<path fill="#FFFFFF" d="M179.404,25.668c1.908-0.792,3.54-1.872,4.896-3.24c1.355-1.368,2.399-2.976,3.132-4.824
	c0.732-1.848,1.098-3.828,1.098-5.94c0-1.704-0.276-3.264-0.828-4.68c-0.552-1.416-1.362-2.64-2.43-3.672
	c-1.068-1.032-2.388-1.83-3.96-2.394c-1.572-0.563-3.39-0.846-5.454-0.846c-2.328,0-4.446,0.396-6.354,1.188
	c-1.908,0.792-3.534,1.872-4.878,3.24s-2.388,2.976-3.132,4.824c-0.744,1.848-1.116,3.828-1.116,5.94
	c0,1.704,0.275,3.264,0.828,4.68c0.552,1.417,1.362,2.641,2.43,3.672c1.067,1.032,2.388,1.83,3.96,2.394
	c1.572,0.564,3.378,0.846,5.418,0.846C175.365,26.856,177.496,26.46,179.404,25.668z M179.422,14.868
	c-0.288,0.84-0.697,1.584-1.224,2.232c-0.528,0.648-1.165,1.165-1.908,1.548c-0.744,0.384-1.584,0.576-2.52,0.576
	c-0.768,0-1.446-0.12-2.034-0.36c-0.588-0.239-1.08-0.569-1.476-0.99c-0.396-0.419-0.696-0.912-0.9-1.476
	c-0.205-0.563-0.306-1.17-0.306-1.818c0-0.864,0.144-1.716,0.432-2.556c0.288-0.84,0.696-1.584,1.224-2.232s1.17-1.17,1.926-1.566
	c0.756-0.396,1.602-0.594,2.538-0.594c0.744,0,1.41,0.121,1.998,0.36c0.587,0.24,1.08,0.57,1.476,0.99
	c0.396,0.42,0.696,0.913,0.9,1.476c0.204,0.564,0.306,1.17,0.306,1.818C179.854,13.164,179.709,14.028,179.422,14.868z"/>
<path fill="#FFFFFF" d="M209.193,7.704l1.224-6.984h-16.416l-4.5,25.488h8.172l1.548-8.784h7.812l1.188-6.768h-7.848l0.54-2.952
	H209.193z"/>
<path fill="#FFFFFF" d="M227.697,26.208l1.224-6.948h-9.864l0.468-2.664h8.424l1.152-6.48h-8.424l0.432-2.448h8.82l1.224-6.948
	h-16.668l-4.5,25.488H227.697z"/>
<path fill="#FFFFFF" d="M254.769,26.208l-4.968-10.404c1.728-0.504,3.09-1.44,4.086-2.808c0.996-1.368,1.494-3.108,1.494-5.22
	c0-1.127-0.21-2.129-0.63-3.006c-0.42-0.876-1.026-1.614-1.818-2.214c-0.792-0.6-1.752-1.056-2.88-1.368
	c-1.128-0.312-2.389-0.468-3.78-0.468h-10.476l-4.5,25.488h8.028l1.584-9.324h1.008l3.492,9.324H254.769z M241.917,11.592
	l0.756-4.284h1.548c0.888,0,1.589,0.138,2.106,0.414c0.516,0.276,0.774,0.786,0.774,1.53c0,0.816-0.312,1.41-0.936,1.782
	c-0.625,0.372-1.488,0.558-2.592,0.558H241.917z"/>
</svg>
